<mxfile host="app.diagrams.net" modified="2024-04-01T13:06:33.185Z" agent="Mozilla/5.0 (Windows NT 10.0; Win64; x64) AppleWebKit/537.36 (KHTML, like Gecko) Chrome/123.0.0.0 Safari/537.36 Edg/123.0.0.0" etag="Pm2E_4e9RoFQm-7ixU1K" version="24.2.1" type="github">
  <diagram name="第 1 页" id="sV1kkrMPThOgv6p1KKkU">
    <mxGraphModel dx="9520" dy="3880" grid="1" gridSize="10" guides="1" tooltips="1" connect="1" arrows="1" fold="1" page="1" pageScale="1" pageWidth="2400" pageHeight="800" math="0" shadow="0">
      <root>
        <mxCell id="0" />
        <mxCell id="1" parent="0" />
        <mxCell id="XkKXiKY0atVUHjeHhkrz-29" style="rounded=0;orthogonalLoop=1;jettySize=auto;html=1;exitX=0;exitY=0;exitDx=0;exitDy=0;entryX=1;entryY=1;entryDx=0;entryDy=0;strokeWidth=5;startArrow=none;startFill=0;endArrow=none;endFill=0;" edge="1" parent="1" source="XkKXiKY0atVUHjeHhkrz-33" target="XkKXiKY0atVUHjeHhkrz-34">
          <mxGeometry relative="1" as="geometry" />
        </mxCell>
        <mxCell id="XkKXiKY0atVUHjeHhkrz-30" style="edgeStyle=none;rounded=0;orthogonalLoop=1;jettySize=auto;html=1;exitX=0.25;exitY=0;exitDx=0;exitDy=0;strokeWidth=5;endArrow=none;endFill=0;" edge="1" parent="1" source="XkKXiKY0atVUHjeHhkrz-33" target="XkKXiKY0atVUHjeHhkrz-35">
          <mxGeometry relative="1" as="geometry" />
        </mxCell>
        <mxCell id="XkKXiKY0atVUHjeHhkrz-31" style="edgeStyle=none;rounded=0;orthogonalLoop=1;jettySize=auto;html=1;exitX=0.5;exitY=0;exitDx=0;exitDy=0;entryX=0.5;entryY=1;entryDx=0;entryDy=0;strokeWidth=5;endArrow=none;endFill=0;" edge="1" parent="1" source="XkKXiKY0atVUHjeHhkrz-33" target="XkKXiKY0atVUHjeHhkrz-36">
          <mxGeometry relative="1" as="geometry" />
        </mxCell>
        <mxCell id="XkKXiKY0atVUHjeHhkrz-32" style="rounded=0;orthogonalLoop=1;jettySize=auto;html=1;entryX=0.5;entryY=1;entryDx=0;entryDy=0;strokeWidth=5;endArrow=none;endFill=0;exitX=0.598;exitY=-0.011;exitDx=0;exitDy=0;exitPerimeter=0;" edge="1" parent="1" source="XkKXiKY0atVUHjeHhkrz-33" target="XkKXiKY0atVUHjeHhkrz-37">
          <mxGeometry relative="1" as="geometry" />
        </mxCell>
        <mxCell id="XkKXiKY0atVUHjeHhkrz-33" value="聊天记录存储表" style="html=1;whiteSpace=wrap;fontSize=60;strokeWidth=2;" vertex="1" parent="1">
          <mxGeometry x="-1590" y="620" width="740" height="110" as="geometry" />
        </mxCell>
        <mxCell id="XkKXiKY0atVUHjeHhkrz-34" value="ID" style="ellipse;whiteSpace=wrap;html=1;fontSize=55;strokeWidth=2;fontStyle=4" vertex="1" parent="1">
          <mxGeometry x="-2310" y="390" width="300" height="150" as="geometry" />
        </mxCell>
        <mxCell id="XkKXiKY0atVUHjeHhkrz-35" value="发信息者" style="ellipse;whiteSpace=wrap;html=1;fontSize=55;strokeWidth=2;fontStyle=0" vertex="1" parent="1">
          <mxGeometry x="-2150" y="120" width="330" height="150" as="geometry" />
        </mxCell>
        <mxCell id="XkKXiKY0atVUHjeHhkrz-36" value="收信息者" style="ellipse;whiteSpace=wrap;html=1;fontSize=55;strokeWidth=2;" vertex="1" parent="1">
          <mxGeometry x="-1700" y="30" width="320" height="150" as="geometry" />
        </mxCell>
        <mxCell id="XkKXiKY0atVUHjeHhkrz-37" value="聊天记录" style="ellipse;whiteSpace=wrap;html=1;fontSize=55;strokeWidth=2;" vertex="1" parent="1">
          <mxGeometry x="-1150" y="30" width="370" height="150" as="geometry" />
        </mxCell>
        <mxCell id="XkKXiKY0atVUHjeHhkrz-38" style="edgeStyle=none;rounded=0;orthogonalLoop=1;jettySize=auto;html=1;exitX=0.5;exitY=1;exitDx=0;exitDy=0;entryX=0.75;entryY=0;entryDx=0;entryDy=0;strokeWidth=5;endArrow=none;endFill=0;" edge="1" parent="1" source="XkKXiKY0atVUHjeHhkrz-39" target="XkKXiKY0atVUHjeHhkrz-33">
          <mxGeometry relative="1" as="geometry" />
        </mxCell>
        <mxCell id="XkKXiKY0atVUHjeHhkrz-39" value="更新时间" style="ellipse;whiteSpace=wrap;html=1;fontSize=55;strokeWidth=2;" vertex="1" parent="1">
          <mxGeometry x="-630" y="100" width="360" height="150" as="geometry" />
        </mxCell>
        <mxCell id="XkKXiKY0atVUHjeHhkrz-40" style="edgeStyle=none;rounded=0;orthogonalLoop=1;jettySize=auto;html=1;exitX=0;exitY=1;exitDx=0;exitDy=0;entryX=1;entryY=0;entryDx=0;entryDy=0;strokeWidth=5;endArrow=none;endFill=0;" edge="1" parent="1" source="XkKXiKY0atVUHjeHhkrz-41" target="XkKXiKY0atVUHjeHhkrz-33">
          <mxGeometry relative="1" as="geometry" />
        </mxCell>
        <mxCell id="XkKXiKY0atVUHjeHhkrz-41" value="创建时间" style="ellipse;whiteSpace=wrap;html=1;fontSize=55;strokeWidth=2;" vertex="1" parent="1">
          <mxGeometry x="-400" y="390" width="330" height="150" as="geometry" />
        </mxCell>
      </root>
    </mxGraphModel>
  </diagram>
</mxfile>
